<mxfile host="app.diagrams.net" modified="2021-06-15T03:15:34.882Z" agent="5.0 (Windows NT 10.0; Win64; x64) AppleWebKit/537.36 (KHTML, like Gecko) Chrome/91.0.4472.101 Safari/537.36" etag="fhdJqjiGs2B2qVbfjCy-" version="14.4.4" type="github">
  <diagram id="seSL-E3JKfU5rSVU0nJT" name="Page-1">
    <mxGraphModel dx="1422" dy="762" grid="1" gridSize="10" guides="1" tooltips="1" connect="1" arrows="1" fold="1" page="1" pageScale="1" pageWidth="850" pageHeight="1100" math="0" shadow="0">
      <root>
        <mxCell id="0" />
        <mxCell id="1" parent="0" />
        <mxCell id="FNJFrBAfivQRf0GqRdr6-10" value="" style="edgeStyle=orthogonalEdgeStyle;rounded=0;orthogonalLoop=1;jettySize=auto;html=1;" edge="1" parent="1" source="FNJFrBAfivQRf0GqRdr6-1" target="FNJFrBAfivQRf0GqRdr6-9">
          <mxGeometry relative="1" as="geometry" />
        </mxCell>
        <mxCell id="FNJFrBAfivQRf0GqRdr6-1" value="Prepare Lobby" style="rounded=0;whiteSpace=wrap;html=1;" vertex="1" parent="1">
          <mxGeometry x="70" y="30" width="140" height="60" as="geometry" />
        </mxCell>
        <mxCell id="FNJFrBAfivQRf0GqRdr6-6" style="edgeStyle=orthogonalEdgeStyle;rounded=0;orthogonalLoop=1;jettySize=auto;html=1;" edge="1" parent="1" source="FNJFrBAfivQRf0GqRdr6-2" target="FNJFrBAfivQRf0GqRdr6-5">
          <mxGeometry relative="1" as="geometry" />
        </mxCell>
        <mxCell id="FNJFrBAfivQRf0GqRdr6-2" value="Start App Client" style="rounded=0;whiteSpace=wrap;html=1;" vertex="1" parent="1">
          <mxGeometry x="130" y="120" width="120" height="60" as="geometry" />
        </mxCell>
        <mxCell id="FNJFrBAfivQRf0GqRdr6-4" style="edgeStyle=orthogonalEdgeStyle;rounded=0;orthogonalLoop=1;jettySize=auto;html=1;" edge="1" parent="1" source="FNJFrBAfivQRf0GqRdr6-3" target="FNJFrBAfivQRf0GqRdr6-2">
          <mxGeometry relative="1" as="geometry" />
        </mxCell>
        <mxCell id="FNJFrBAfivQRf0GqRdr6-3" value="Actor" style="shape=umlActor;verticalLabelPosition=bottom;verticalAlign=top;html=1;outlineConnect=0;" vertex="1" parent="1">
          <mxGeometry x="50" y="120" width="30" height="60" as="geometry" />
        </mxCell>
        <mxCell id="FNJFrBAfivQRf0GqRdr6-8" value="" style="edgeStyle=orthogonalEdgeStyle;rounded=0;orthogonalLoop=1;jettySize=auto;html=1;entryX=0;entryY=0.5;entryDx=0;entryDy=0;" edge="1" parent="1" source="FNJFrBAfivQRf0GqRdr6-5" target="FNJFrBAfivQRf0GqRdr6-18">
          <mxGeometry relative="1" as="geometry">
            <mxPoint x="455" y="150" as="targetPoint" />
          </mxGeometry>
        </mxCell>
        <mxCell id="FNJFrBAfivQRf0GqRdr6-5" value="Create Game" style="rounded=0;whiteSpace=wrap;html=1;" vertex="1" parent="1">
          <mxGeometry x="290" y="120" width="120" height="60" as="geometry" />
        </mxCell>
        <mxCell id="FNJFrBAfivQRf0GqRdr6-15" style="edgeStyle=orthogonalEdgeStyle;rounded=0;orthogonalLoop=1;jettySize=auto;html=1;" edge="1" parent="1" source="FNJFrBAfivQRf0GqRdr6-9" target="FNJFrBAfivQRf0GqRdr6-1">
          <mxGeometry relative="1" as="geometry" />
        </mxCell>
        <mxCell id="FNJFrBAfivQRf0GqRdr6-9" value="Invite" style="rounded=0;whiteSpace=wrap;html=1;" vertex="1" parent="1">
          <mxGeometry x="260" y="30" width="140" height="60" as="geometry" />
        </mxCell>
        <mxCell id="FNJFrBAfivQRf0GqRdr6-21" value="" style="edgeStyle=orthogonalEdgeStyle;rounded=0;orthogonalLoop=1;jettySize=auto;html=1;" edge="1" parent="1" source="FNJFrBAfivQRf0GqRdr6-16" target="FNJFrBAfivQRf0GqRdr6-20">
          <mxGeometry relative="1" as="geometry" />
        </mxCell>
        <mxCell id="FNJFrBAfivQRf0GqRdr6-16" value="Start" style="rounded=0;whiteSpace=wrap;html=1;" vertex="1" parent="1">
          <mxGeometry x="630" y="120" width="120" height="60" as="geometry" />
        </mxCell>
        <mxCell id="FNJFrBAfivQRf0GqRdr6-19" value="" style="edgeStyle=orthogonalEdgeStyle;rounded=0;orthogonalLoop=1;jettySize=auto;html=1;exitX=1;exitY=0.5;exitDx=0;exitDy=0;" edge="1" parent="1" source="FNJFrBAfivQRf0GqRdr6-18" target="FNJFrBAfivQRf0GqRdr6-16">
          <mxGeometry relative="1" as="geometry" />
        </mxCell>
        <mxCell id="FNJFrBAfivQRf0GqRdr6-18" value="&lt;span&gt;Prepare Lobby&lt;/span&gt;" style="shape=process;whiteSpace=wrap;html=1;backgroundOutline=1;" vertex="1" parent="1">
          <mxGeometry x="455" y="120" width="120" height="60" as="geometry" />
        </mxCell>
        <mxCell id="FNJFrBAfivQRf0GqRdr6-23" value="" style="edgeStyle=orthogonalEdgeStyle;rounded=0;orthogonalLoop=1;jettySize=auto;html=1;" edge="1" parent="1" source="FNJFrBAfivQRf0GqRdr6-20" target="FNJFrBAfivQRf0GqRdr6-22">
          <mxGeometry relative="1" as="geometry" />
        </mxCell>
        <mxCell id="FNJFrBAfivQRf0GqRdr6-20" value="Playfab Matchmaking" style="shape=process;whiteSpace=wrap;html=1;backgroundOutline=1;rounded=0;" vertex="1" parent="1">
          <mxGeometry x="630" y="260" width="120" height="60" as="geometry" />
        </mxCell>
        <mxCell id="FNJFrBAfivQRf0GqRdr6-24" style="edgeStyle=orthogonalEdgeStyle;rounded=0;orthogonalLoop=1;jettySize=auto;html=1;" edge="1" parent="1" source="FNJFrBAfivQRf0GqRdr6-22">
          <mxGeometry relative="1" as="geometry">
            <mxPoint x="750" y="310" as="targetPoint" />
            <Array as="points">
              <mxPoint x="800" y="455" />
              <mxPoint x="800" y="310" />
              <mxPoint x="750" y="310" />
            </Array>
          </mxGeometry>
        </mxCell>
        <mxCell id="FNJFrBAfivQRf0GqRdr6-25" value="No" style="edgeLabel;html=1;align=center;verticalAlign=middle;resizable=0;points=[];" vertex="1" connectable="0" parent="FNJFrBAfivQRf0GqRdr6-24">
          <mxGeometry x="-0.2302" y="4" relative="1" as="geometry">
            <mxPoint as="offset" />
          </mxGeometry>
        </mxCell>
        <mxCell id="FNJFrBAfivQRf0GqRdr6-27" value="" style="edgeStyle=orthogonalEdgeStyle;rounded=0;orthogonalLoop=1;jettySize=auto;html=1;" edge="1" parent="1" source="FNJFrBAfivQRf0GqRdr6-22" target="FNJFrBAfivQRf0GqRdr6-26">
          <mxGeometry relative="1" as="geometry" />
        </mxCell>
        <mxCell id="FNJFrBAfivQRf0GqRdr6-29" value="Yes" style="edgeLabel;html=1;align=center;verticalAlign=middle;resizable=0;points=[];" vertex="1" connectable="0" parent="FNJFrBAfivQRf0GqRdr6-27">
          <mxGeometry x="0.2952" y="3" relative="1" as="geometry">
            <mxPoint x="23" y="-3" as="offset" />
          </mxGeometry>
        </mxCell>
        <mxCell id="FNJFrBAfivQRf0GqRdr6-22" value="Found minimum amount of players" style="rhombus;whiteSpace=wrap;html=1;rounded=0;" vertex="1" parent="1">
          <mxGeometry x="560" y="390" width="170" height="130" as="geometry" />
        </mxCell>
        <mxCell id="FNJFrBAfivQRf0GqRdr6-26" value="Start Game Scene" style="whiteSpace=wrap;html=1;rounded=0;" vertex="1" parent="1">
          <mxGeometry x="335" y="425" width="120" height="60" as="geometry" />
        </mxCell>
        <mxCell id="FNJFrBAfivQRf0GqRdr6-32" style="edgeStyle=orthogonalEdgeStyle;rounded=0;orthogonalLoop=1;jettySize=auto;html=1;exitX=1;exitY=0.5;exitDx=0;exitDy=0;" edge="1" parent="1" source="FNJFrBAfivQRf0GqRdr6-30" target="FNJFrBAfivQRf0GqRdr6-31">
          <mxGeometry relative="1" as="geometry" />
        </mxCell>
        <mxCell id="FNJFrBAfivQRf0GqRdr6-30" value="Matchmaking Rules" style="shape=process;whiteSpace=wrap;html=1;backgroundOutline=1;" vertex="1" parent="1">
          <mxGeometry x="20" y="560" width="120" height="60" as="geometry" />
        </mxCell>
        <mxCell id="FNJFrBAfivQRf0GqRdr6-31" value="At least 3 players?&lt;br&gt;&lt;br&gt;Found 10 players." style="shape=note;whiteSpace=wrap;html=1;backgroundOutline=1;darkOpacity=0.05;" vertex="1" parent="1">
          <mxGeometry x="180" y="540" width="80" height="100" as="geometry" />
        </mxCell>
      </root>
    </mxGraphModel>
  </diagram>
</mxfile>
